<svg id="Layer_1" data-name="Layer 1" xmlns="http://www.w3.org/2000/svg" viewBox="0 0 561.54 286.82"><defs><style>.cls-1{fill:#00ff39;}.cls-1,.cls-2,.cls-3{stroke:#000;stroke-miterlimit:10;}.cls-2{fill:#ff6ace;}.cls-3{fill:none;}</style></defs><path class="cls-1" d="M544,45V33.19H357.91C377.3,19.51,412.1,7.69,441,3.19c45.78-7,107.45-.28,112,21C554.35,30.36,550.84,37.63,544,45Z" transform="translate(0 -0.03)"/><path class="cls-2" d="M544,33.19v182.1l-143.91-1.18-272-2.22-85-.7-.93-33.25L38.92,64.84Q38.47,49,38,33.19Z" transform="translate(0 -0.03)"/><path class="cls-1" d="M38,33.19q.45,15.83.89,31.65C20.24,55.5,7.92,43.78,9,34.19c2.06-17.8,50.56-29.58,89-26,26.5,2.5,55.4,12.92,71.5,25Z" transform="translate(0 -0.03)"/><path class="cls-1" d="M120,262.19c-23.28,33.36-81.16,30.7-106,1C3.38,250.45-3.47,230,3,212.19c5.67-15.6,21-27.71,39.07-34.25L43,211.19l85.05.7C132.53,228.62,130,247.9,120,262.19Z" transform="translate(0 -0.03)"/><path class="cls-1" d="M483,269.19c-41.26,3.24-89.92-16.07-91-38-.29-5.87,2.85-11.68,8.09-17.08L544,215.29v-12c10.27,6.6,16.72,14.33,17,21.91C561.78,245.35,519.07,266.36,483,269.19Z" transform="translate(0 -0.03)"/><path class="cls-3" d="M250,365.19" transform="translate(0 -0.03)"/></svg>